<?xml version="1.0" encoding="utf-8"?>
<!-- Generator: Adobe Illustrator 27.0.1, SVG Export Plug-In . SVG Version: 6.00 Build 0)  -->
<svg version="1.1" id="Layer_2_00000008830046504394188070000007575919131481769383_"
	 xmlns="http://www.w3.org/2000/svg" xmlns:xlink="http://www.w3.org/1999/xlink" x="0px" y="0px" viewBox="0 0 430.4 144.2"
	 style="enable-background:new 0 0 430.4 144.2;" xml:space="preserve">
<style type="text/css">
	.st0{fill:#9C2801;}
</style>
<g id="Layer_1-2">
	<g>
		<path class="st0" d="M70.3,75.5c0,0.4,0,0.8-0.2,1.2c-0.2,0.2-0.4,0.4-0.8,0.6c-0.4,0.2-0.7,0.3-1.1,0.3
			c-4.5,0.1-8.8,0.1-13.2,0.1H42c-1.8,0-2.3-0.7-1.5-2.2c0.6-1,1.2-1.9,1.8-2.8s1.3-1.8,2-2.7c0.7-0.8,1-1.7,0.8-2.8
			c-0.6-2.1-1.1-4.2-1.6-6.2c-0.5-2.1-1-4.2-1.6-6.3c-1.8,0-3.8,0-6.1,0.1s-4.6,0.1-6.9,0.1H17.4c-0.4,1.6-0.9,3.1-1.3,4.7
			c-0.4,1.6-0.9,3.2-1.3,4.8c-0.1,0.6-0.1,1.2,0.2,1.9l4,6.7c0.1,0.3,0.3,0.6,0.4,0.8s0.3,0.5,0.3,0.8c0.4,1.2,0.4,2,0.2,2.3
			c-0.3,0.4-1,0.6-2.3,0.6H9.9c-2.6,0-5.1,0-7.7-0.1c-0.4,0-0.8-0.1-1.2-0.2c-0.4-0.2-0.7-0.4-0.9-0.7c-0.1-0.3,0-0.7,0.2-1.1
			c0.2-0.4,0.4-0.8,0.7-1.1c1.4-1.7,2.8-3.4,4.3-5c1.5-1.6,2.8-3.3,4.2-5c0.6-0.7,1-1.5,1.3-2.3c0.3-0.9,0.6-1.8,0.8-2.7
			c1.9-6.5,3.8-12.9,5.7-19.2s3.7-12.8,5.6-19.2l4-13.4c0.1-0.5,0.2-0.9,0.1-1.3S26.5,5.5,26,5.1c-0.7-0.7-1.6-1.6-2.5-2.7
			c-0.1-0.2-0.3-0.5-0.3-0.8c-0.1-0.3,0-0.6,0.1-0.8C23.6,0.3,24.2,0,24.9,0h19.3c0.8,0,1.3,0.2,1.6,0.5s0.4,0.9,0.5,1.7
			c0,0.6,0.1,1.2,0.2,1.7s0.3,1,0.5,1.6c2.5,8.6,4.9,17.1,7.3,25.6c2.4,8.5,4.8,17,7.3,25.6c0.5,1.8,1,3.7,1.5,5.5
			c0.5,1.8,1,3.6,1.6,5.5c0.2,0.4,0.3,0.7,0.6,1.1c0.2,0.3,0.4,0.7,0.7,1.1c0.7,0.8,1.3,1.6,2.1,2.3c0.7,0.7,1.3,1.5,1.9,2.3
			C70.1,74.7,70.2,75.1,70.3,75.5L70.3,75.5z M18.5,51h22.5c-1.5-5.7-2.9-11.4-4.3-17c-1.4-5.6-2.9-11.3-4.3-16.9
			c-0.3-1.3-0.6-2.5-0.8-3.6c-0.3-1.1-0.5-2.3-0.8-3.5h-0.3c-0.5,1.7-1,3.4-1.5,5s-1,3.3-1.4,5c-1.1,3.9-2.2,7.7-3.3,11.6
			c-1.1,3.9-2.2,7.8-3.3,11.7c-0.4,1.3-0.7,2.6-1.1,3.9C19.2,48.5,18.9,49.8,18.5,51z"/>
		<path class="st0" d="M133.8,70.5c1,1,0.8,1.8-0.6,2.3c-0.4,0.2-1.7,0.5-3.8,1.2c-2.1,0.6-4.3,1.3-6.7,1.9
			c-2.8,0.8-5.9,1.7-9.2,2.8c-1.1,0.4-1.9,0.4-2.3,0c-0.4-0.4-0.6-1.1-0.6-2.2V71c-1.3,2.1-3.1,3.9-5.2,5.3s-4.6,2.4-7.4,2.9
			c-1.3,0.2-2.8,0.2-4.4,0c-1.6-0.2-3.2-0.7-4.8-1.4s-3.1-1.7-4.5-2.9c-1.4-1.2-2.6-2.8-3.6-4.6c-1-1.9-1.7-3.9-2.2-6
			c-0.5-2.1-0.8-4.2-0.8-6.3c0.1-3,0.1-6,0.2-9.2c0-3.2,0.1-6.2,0.3-9.2c0.1-1.1-0.1-2-0.6-2.7s-1.1-1.3-1.9-1.9
			c-0.5-0.4-1.1-0.7-1.6-1.1c-0.6-0.4-0.8-1-0.6-1.8s0.6-1.3,1.3-1.5c0.7-0.1,1.3-0.3,1.9-0.6c3.1-1.1,6.2-2.2,9.2-3.4
			s6.1-2.3,9.2-3.4c0.2-0.1,0.4-0.1,0.7-0.2s0.4-0.1,0.7-0.2c1.5-0.2,2.3,0.4,2.4,1.9V25c0,0.2,0,1.1-0.1,2.7s-0.1,3.5-0.1,5.9
			s-0.1,5-0.2,7.7s-0.1,5.5-0.2,8.1c0,2.6-0.1,5-0.1,7.2v4.9c0,2.5,0.4,5,1.3,7.3c0.5,1.5,1.3,2.4,2.5,2.7s2.3,0,3.6-1.1
			c1.5-1.3,2.5-2.7,3.1-4.4s1.1-3.3,1.7-5.1c0-2.4,0-4.8,0.1-7.3s0.1-4.9,0.1-7.2V36.1c0-1.1-0.3-2-1-2.7c-0.4-0.4-0.7-0.7-1.1-1.1
			c-0.3-0.3-0.7-0.7-1.1-1.1c-1-1.1-0.8-1.9,0.6-2.3c0.4-0.1,1.7-0.5,3.8-1.2c2.1-0.6,4.4-1.3,6.7-2c2.7-0.8,5.8-1.7,9.1-2.8
			c1.1-0.4,1.9-0.4,2.3,0c0.4,0.3,0.6,1.1,0.6,2.3v17.2c0,2.3,0,4.6-0.1,7c0,2.3-0.1,4.5-0.1,6.6v9.6c0,1.1,0.3,2,1,2.6
			c0.4,0.4,0.7,0.7,1.1,1.1C133.1,69.8,133.5,70.1,133.8,70.5L133.8,70.5z"/>
		<path class="st0" d="M181.4,67.6c-3,6.8-8.4,10.6-16,11.5c-0.4,0.1-0.8,0.1-1.2,0.2c-0.4,0-0.9,0.1-1.3,0.2
			c-1.6-0.1-3.2-0.4-4.8-0.9s-3-1.2-4.3-2.1c-1.3-0.9-2.4-1.9-3.4-3.2s-1.8-2.5-2.3-3.9c-0.7-1.9-1.2-3.9-1.6-5.9
			c-0.4-2-0.6-4-0.7-6.1c-0.1-3.3-0.1-6.6-0.2-9.9c0-3.3-0.1-6.6-0.2-9.9c0-1.9,0-3.9,0.1-5.8c0.1-2,0.1-3.9,0.2-5.8
			c0.1-0.8-0.3-1.5-1.1-1.9c-1.2-0.5-2.3-1.1-3.2-1.7c-0.6-0.4-0.9-1-0.9-1.6c0-0.2,0.1-0.5,0.4-0.7c0.3-0.2,0.6-0.4,0.8-0.6
			c3.9-1.3,7.7-2.5,11.4-3.6s7.6-2.3,11.5-3.5c0.8-0.3,1.4-0.2,1.8,0.2c0.4,0.4,0.5,1,0.4,1.8c-0.1,0.4-0.2,0.7-0.2,0.9
			c-0.1,1.5-0.1,3-0.1,4.4s0,3-0.1,4.5H179c0.1,0,0.3,0,0.5,0.1c0.2,0.1,0.4,0.3,0.6,0.7c0.2,0.4,0.3,1,0.3,1.5c0,0.6-0.2,1-0.6,1.3
			c-0.1,0.1-0.2,0.1-0.3,0.1c-1.2,0.1-3,0.1-5.4,0.1h-7.7c-0.1,2.8-0.1,5.6-0.2,8.5c0,2.8-0.1,5.6-0.2,8.5c0,1,0,2.4-0.1,4.2
			c0,1.8-0.1,3.8-0.1,6s0.1,4.2,0.3,6.2c0.2,2,0.5,3.6,0.9,4.8c0.4,1,0.8,1.9,1.4,2.7c0.6,0.8,1.4,1.2,2.5,1.4
			c2.4,0.4,4.4-0.3,6-2.1c0.3-0.4,0.6-0.7,0.8-1.1s0.5-0.7,0.8-1.1c0.4-0.4,0.7-0.7,1.1-0.8c0.3-0.2,0.8-0.1,1.3,0.3
			C181.8,65.9,181.9,66.7,181.4,67.6L181.4,67.6z"/>
		<path class="st0" d="M249.3,70.5c1,1,0.8,1.8-0.6,2.3c-0.4,0.2-1.7,0.5-3.8,1.2c-2.1,0.6-4.3,1.3-6.7,1.9
			c-2.8,0.8-5.9,1.7-9.2,2.8c-1.1,0.4-1.9,0.4-2.3,0s-0.6-1.1-0.6-2.2V71c-1.3,2.1-3.1,3.9-5.2,5.3s-4.6,2.4-7.4,2.9
			c-1.3,0.2-2.8,0.2-4.4,0c-1.6-0.2-3.2-0.7-4.8-1.4s-3.1-1.7-4.5-2.9c-1.4-1.2-2.6-2.8-3.6-4.6c-1-1.9-1.7-3.9-2.2-6
			c-0.5-2.1-0.8-4.2-0.8-6.3c0.1-3,0.1-6,0.2-9.2c0-3.2,0.1-6.2,0.3-9.2c0.1-1.1-0.1-2-0.6-2.7s-1.1-1.3-1.9-1.9
			c-0.5-0.4-1.1-0.7-1.6-1.1c-0.6-0.4-0.8-1-0.6-1.8s0.6-1.3,1.3-1.5c0.7-0.1,1.4-0.3,1.9-0.6c3.1-1.1,6.2-2.2,9.2-3.4
			s6.1-2.3,9.2-3.4c0.2-0.1,0.4-0.1,0.7-0.2s0.4-0.1,0.7-0.2c1.5-0.2,2.3,0.4,2.4,1.9V25c0,0.2,0,1.1-0.1,2.7s-0.1,3.5-0.1,5.9
			s-0.1,5-0.2,7.7s-0.1,5.5-0.2,8.1c0,2.6-0.1,5-0.1,7.2v4.9c0,2.5,0.4,5,1.3,7.3c0.5,1.5,1.4,2.4,2.5,2.7s2.4,0,3.6-1.1
			c1.5-1.3,2.5-2.7,3.1-4.4s1.1-3.3,1.7-5.1c0-2.4,0-4.8,0.1-7.3s0.1-4.9,0.1-7.2V36.1c0-1.1-0.3-2-1-2.7c-0.4-0.4-0.7-0.7-1.1-1.1
			c-0.3-0.3-0.7-0.7-1.1-1.1c-1-1.1-0.9-1.9,0.6-2.3c0.4-0.1,1.7-0.5,3.8-1.2c2.1-0.6,4.4-1.3,6.7-2c2.7-0.8,5.8-1.7,9.1-2.8
			c1.1-0.4,1.9-0.4,2.3,0c0.4,0.3,0.6,1.1,0.6,2.3v17.2c0,2.3,0,4.6-0.1,7c0,2.3-0.1,4.5-0.1,6.6v9.6c0,1.1,0.3,2,1,2.6
			c0.4,0.4,0.7,0.7,1.1,1.1C248.5,69.8,248.9,70.1,249.3,70.5L249.3,70.5z"/>
		<path class="st0" d="M351.6,77.4c-1,0.2-2,0.3-3.1,0.3s-2.8,0-5.1,0.1s-4.6,0.1-7.1,0.1s-4.7,0-6.8-0.1s-3.6-0.1-4.4-0.1
			c-0.6,0-1-0.2-1.3-0.7c-0.3-0.4-0.2-1,0.2-1.6c0.1-0.2,0.3-0.4,0.6-0.8c0.3-0.4,0.6-0.8,1-1.3c0.3-0.4,0.6-0.9,1-1.3
			c0.3-0.4,0.5-0.7,0.6-0.7c0.2-0.2,0.4-0.7,0.5-1.4c0.1-0.7,0.2-1.4,0.2-2.2c0-0.8,0.1-1.5,0.1-2.2v-1.4c0-3.4,0-6.8,0.1-10.1
			c0.1-3.3,0.1-6.7,0.1-10.1c0-1.6-0.1-3.2-0.2-4.8c-0.1-1.6-0.3-3.2-0.4-4.7c0-1-0.3-1.9-0.9-2.7c-0.8-0.9-1.6-1.5-2.3-1.7
			c-0.7-0.3-1.6,0.1-2.6,1c-1.3,1.3-2.4,2.6-3.2,4.1c-0.8,1.5-1.4,3.1-1.7,4.8c-0.1,0.5-0.2,1-0.3,1.5s-0.1,0.9-0.3,1.5
			c0.1,2,0.2,4.1,0.3,6.4s0.1,4.4,0.1,6.5s0,4-0.1,5.6s-0.1,2.9-0.1,3.6v2.4c0,0.8,0.1,1.6,0.5,2.4c0.2,0.7,0.6,1.4,1.1,2.1
			c0.5,0.7,1,1.4,1.6,2.1c0.4,0.4,0.8,0.8,1,1.1c0.7,1.2,0.4,2-0.9,2.3c-1,0.2-2,0.3-3.1,0.3s-2.8,0-5.1,0.1s-4.6,0.1-7.1,0.1
			s-4.7,0-6.8-0.1s-3.6-0.1-4.4-0.1c-0.6,0-1-0.2-1.3-0.7c-0.3-0.4-0.2-1,0.2-1.6c0.1-0.2,0.4-0.4,0.6-0.8c0.3-0.4,0.6-0.8,0.9-1.3
			c0.3-0.4,0.6-0.9,1-1.3c0.3-0.4,0.5-0.7,0.6-0.7c0.2-0.2,0.4-0.7,0.5-1.4c0.1-0.7,0.2-1.4,0.2-2.2c0-0.8,0.1-1.5,0.1-2.2v-1.4
			c0.1-3.4,0.1-6.8,0.2-10.1s0.1-6.7,0.1-10.1c0-1.6-0.1-3.2-0.2-4.8c-0.1-1.6-0.2-3.2-0.4-4.7c-0.1-0.5-0.2-0.9-0.3-1.4
			c-0.1-0.5-0.4-0.9-0.7-1.3c-0.8-0.9-1.6-1.5-2.3-1.7c-0.7-0.3-1.6,0.1-2.6,1c-1.3,1.3-2.4,2.6-3.1,4.1c-0.7,1.5-1.3,3.1-1.8,4.8
			c-0.1,0.6-0.3,1.2-0.3,1.7c-0.1,0.6-0.2,1.1-0.3,1.7v7.6c0,2.6,0,4.9-0.1,7.1s0,4.1,0,5.7v3.3c0,1,0.3,1.8,0.9,2.7
			c0.6,0.9,1.2,1.8,1.9,2.7s1.3,1.8,1.9,2.7c0.1,0.3,0.3,0.6,0.4,1c0.1,0.4,0.1,0.7-0.1,0.9c-0.4,0.6-1,0.9-1.8,0.9h-26.4
			c-0.7,0-1.3-0.3-1.8-0.9c-0.1-0.2-0.2-0.5-0.1-0.9c0.1-0.4,0.2-0.7,0.4-1c0.6-0.9,1.2-1.8,1.9-2.7s1.3-1.8,1.9-2.7
			c0.6-0.8,0.9-1.7,0.9-2.7v-22c0-2,0-3.8,0-5.3c0-1.5,0.1-2.5,0.1-3.1c0-1-0.4-1.9-1.1-2.6c-0.4-0.4-0.7-0.7-1-1.1
			c-0.3-0.4-0.6-0.7-1-1.1c-1-1-0.8-1.8,0.4-2.3c0.9-0.3,1.8-0.6,2.7-0.8c0.9-0.2,1.8-0.5,2.7-0.8c2.5-0.7,4.9-1.5,7.2-2.2
			c2.3-0.7,4.6-1.4,7.2-2.2c1.1-0.4,1.9-0.4,2.3,0c0.5,0.4,0.7,1.1,0.7,2.2v3.1c0,0.6,0,1.4-0.1,2.2c1.3-2,2.8-3.6,4.7-4.7
			s3.9-2,6.2-2.4c1.9-0.4,3.9-0.6,5.8-0.6s3.9,0.4,5.7,1.2c2.1,1,3.9,2.3,5.1,3.9c1.3,1.6,2.3,3.5,3,5.5c0.1-0.4,0.3-0.7,0.5-1.1
			c0.2-0.3,0.4-0.7,0.5-1.1c1.3-2.3,2.9-4.1,4.8-5.3s4.1-2.1,6.6-2.6c1.9-0.4,3.9-0.6,5.8-0.6s3.9,0.4,5.7,1.2
			c2.6,1.1,4.6,2.7,5.9,4.8c1.3,2.1,2.3,4.4,3,6.9c0.4,1.3,0.6,3.4,0.8,6.2c0.1,2.8,0.2,5.7,0.3,8.7s0,5.8,0,8.3s-0.1,4.4-0.1,5.4
			v2.4c0,0.8,0.1,1.6,0.5,2.4c0.2,0.7,0.6,1.4,1.1,2.1c0.5,0.7,1,1.4,1.6,2.1c0.1,0.2,0.3,0.3,0.5,0.6c0.2,0.2,0.4,0.4,0.5,0.6
			C353.3,76.2,353,77,351.6,77.4L351.6,77.4z"/>
		<path class="st0" d="M421.9,77.4c-1,0.2-2,0.3-3.1,0.3s-2.8,0-5.1,0.1s-4.6,0.1-7.1,0.1s-4.7,0-6.8-0.1s-3.6-0.1-4.4-0.1
			c-0.6,0-1-0.2-1.3-0.7c-0.3-0.4-0.2-1,0.2-1.6c0.1-0.2,0.4-0.4,0.6-0.8c0.3-0.4,0.6-0.8,0.9-1.3c0.3-0.4,0.6-0.9,1-1.3
			c0.3-0.4,0.5-0.7,0.6-0.7c0.2-0.2,0.4-0.7,0.5-1.4c0.1-0.7,0.2-1.4,0.2-2.2c0-0.8,0.1-1.5,0.1-2.2v-1.4c0.1-3.4,0.1-6.8,0.2-10.1
			s0.1-6.7,0.1-10.1c0-1.6-0.1-3.2-0.2-4.8c-0.1-1.6-0.2-3.2-0.4-4.7c-0.1-0.5-0.2-0.9-0.3-1.4c-0.1-0.5-0.4-0.9-0.7-1.3
			c-0.8-0.9-1.6-1.5-2.3-1.7c-0.7-0.3-1.6,0.1-2.6,1c-1.3,1.3-2.4,2.6-3.1,4.1c-0.7,1.5-1.3,3.1-1.8,4.8c-0.1,0.6-0.3,1.2-0.3,1.7
			c-0.1,0.6-0.2,1.1-0.3,1.7v7.6c0,2.6,0,4.9-0.1,7.1s0,4.1,0,5.7v3.3c0,1,0.3,1.8,0.9,2.7c0.6,0.9,1.2,1.8,1.9,2.7s1.3,1.8,1.9,2.7
			c0.1,0.3,0.3,0.6,0.4,1c0.1,0.4,0.1,0.7-0.1,0.9c-0.4,0.6-1,0.9-1.8,0.9h-26.4c-0.7,0-1.3-0.3-1.8-0.9c-0.1-0.2-0.2-0.5-0.1-0.9
			c0.1-0.4,0.2-0.7,0.4-1c0.6-0.9,1.2-1.8,1.9-2.7s1.3-1.8,1.9-2.7c0.6-0.8,0.9-1.7,0.9-2.7v-22c0-2,0-3.8,0-5.3
			c0-1.5,0.1-2.5,0.1-3.1c0-1-0.4-1.9-1.1-2.6c-0.4-0.4-0.7-0.7-1-1.1c-0.3-0.4-0.6-0.7-1-1.1c-1-1-0.8-1.8,0.4-2.3
			c0.9-0.3,1.8-0.6,2.7-0.8c0.9-0.2,1.8-0.5,2.7-0.8c2.5-0.7,4.9-1.5,7.2-2.2c2.3-0.7,4.6-1.4,7.2-2.2c1.1-0.4,1.9-0.4,2.3,0
			c0.5,0.4,0.7,1.1,0.7,2.2v3.1c0,0.6,0,1.4-0.1,2.2c1.3-2,2.8-3.6,4.7-4.7s3.9-2,6.2-2.4c1.9-0.4,3.9-0.6,5.8-0.6s3.9,0.4,5.7,1.2
			c2.6,1.1,4.6,2.7,5.9,4.8c1.3,2.1,2.3,4.4,3,6.9c0.4,1.3,0.6,3.4,0.8,6.2s0.2,5.7,0.3,8.7s0,5.8,0,8.3s-0.1,4.4-0.1,5.4v2.4
			c0,0.8,0.1,1.6,0.5,2.4c0.2,0.7,0.6,1.4,1.1,2.1c0.5,0.7,1,1.4,1.6,2.1c0.1,0.2,0.3,0.3,0.5,0.6c0.2,0.2,0.4,0.4,0.5,0.6
			C423.5,76.2,423.2,77,421.9,77.4L421.9,77.4z"/>
	</g>
	<g>
		<path class="st0" d="M147.9,103.7c0.1,0.2,0.1,0.3-0.1,0.5c-0.1,0.2-0.2,0.4-0.3,0.5c-0.7,0.9-1.5,1.7-2.2,2.6
			c-0.7,0.8-1.5,1.7-2.1,2.6c-0.3,0.4-0.5,0.8-0.7,1.3c-0.1,0.5-0.3,0.9-0.4,1.3c-1,3.3-2,6.7-2.9,9.9c-0.9,3.2-1.9,6.6-2.9,9.9
			c-0.3,1.1-0.6,2.3-1,3.4s-0.7,2.3-1,3.4c0,0.1-0.1,0.4-0.3,0.8c-0.1,0.4-0.3,0.9-0.6,1.3c-0.2,0.5-0.5,0.9-0.8,1.2s-0.6,0.5-1,0.5
			h-6.3c-0.4,0-0.7-0.1-0.8-0.2c-0.1-0.1-0.2-0.4-0.2-0.9c0-0.3-0.1-0.6-0.1-0.9c-0.1-0.3-0.2-0.6-0.3-0.9
			c-0.9-3.4-1.9-6.7-2.8-10.1c-0.9-3.3-1.9-6.7-2.8-10.1c-0.6,2.1-1.2,4.1-1.8,6.1c-0.6,2-1.2,4.1-1.8,6.1c-0.3,1.1-0.7,2.3-1,3.4
			s-0.7,2.3-1,3.4c0,0.1-0.1,0.4-0.3,0.8c-0.2,0.4-0.3,0.9-0.6,1.3s-0.5,0.9-0.8,1.2c-0.3,0.3-0.7,0.5-1,0.5h-6.3
			c-0.4,0-0.7-0.1-0.8-0.2c-0.1-0.1-0.2-0.4-0.2-0.9c0-0.3-0.1-0.6-0.2-0.9c-0.1-0.3-0.2-0.6-0.2-0.9c-1.2-4.4-2.5-8.8-3.7-13.1
			c-1.3-4.4-2.5-8.8-3.7-13.1c-0.3-0.9-0.6-1.9-0.8-2.8c-0.2-0.9-0.5-1.9-0.8-2.8c-0.1-0.4-0.3-0.8-0.6-1.1c-0.3-0.4-0.7-0.8-1-1.2
			s-0.7-0.8-1-1.2c-0.1-0.2-0.1-0.3-0.2-0.6s0-0.5,0.1-0.7c0.1-0.1,0.2-0.2,0.4-0.3s0.4-0.1,0.6-0.1h13.5c0.9,0,1.1,0.4,0.7,1.1
			c-0.3,0.5-0.6,1-0.9,1.4s-0.7,0.9-1,1.3c-0.2,0.2-0.3,0.4-0.4,0.7c-0.1,0.2-0.1,0.5,0,0.8c1.1,4.3,2.2,8.6,3.3,12.9
			c1.1,4.3,2.2,8.6,3.3,12.9c0.2,0.6,0.3,1.2,0.5,1.8c0.2,0.6,0.3,1.2,0.5,1.9h0.2c0.2-0.9,0.5-1.7,0.7-2.6c0.2-0.8,0.5-1.7,0.8-2.6
			c0.6-2,1.1-4,1.7-6s1.1-3.9,1.7-6l1.4-4.8c-0.1-0.4-0.2-0.7-0.3-1.1s-0.2-0.7-0.3-1c-0.3-0.9-0.5-1.9-0.8-2.8
			c-0.2-0.9-0.5-1.9-0.8-2.8c-0.1-0.2-0.2-0.4-0.3-0.6s-0.2-0.4-0.3-0.5c-0.3-0.4-0.7-0.8-1.1-1.2s-0.7-0.8-1-1.2
			c-0.1-0.2-0.2-0.3-0.2-0.6s0-0.5,0.1-0.7c0-0.1,0.2-0.2,0.4-0.3s0.4-0.1,0.6-0.1h13.5c0.9,0,1.2,0.4,0.7,1.1
			c-0.3,0.5-0.6,1-0.9,1.4s-0.7,0.9-1.1,1.3c-0.2,0.2-0.3,0.4-0.4,0.7c-0.1,0.2-0.1,0.5,0,0.8c1.1,4.3,2.2,8.6,3.3,12.9
			c1.1,4.3,2.2,8.6,3.2,12.9c0.2,0.6,0.4,1.2,0.5,1.8c0.1,0.6,0.3,1.2,0.4,1.9h0.2c0.3-0.9,0.5-1.7,0.7-2.6c0.2-0.8,0.5-1.7,0.7-2.6
			c0.6-2,1.1-4,1.7-6c0.6-2,1.1-3.9,1.7-6c0.5-1.8,1.1-3.6,1.5-5.4c0.5-1.8,1-3.6,1.5-5.4c0.1-0.3,0-0.6-0.1-1
			c-0.3-0.6-0.7-1.2-1-1.8s-0.7-1.1-1-1.7c-0.1-0.2-0.3-0.5-0.5-0.7c-0.2-0.6-0.2-1-0.1-1.2c0.1-0.2,0.6-0.3,1.2-0.3
			c1.3,0,2.7,0,4,0c1.3,0,2.6,0,4,0c0.2,0,0.4,0.1,0.6,0.1C147.7,103.5,147.8,103.6,147.9,103.7L147.9,103.7L147.9,103.7z"/>
		<path class="st0" d="M169.7,139.9c-0.1,0.2-0.3,0.4-0.8,0.5l-9.6,2.4c-0.2,0.1-0.4,0.1-0.5,0.2s-0.3,0.1-0.5,0.2
			c-0.8,0.3-1.2,0.1-1.3-0.7c0-0.4-0.1-0.8-0.1-1.2c0-0.4-0.1-0.8-0.1-1.3c-0.3,0.3-0.7,0.7-1,1s-0.6,0.6-0.9,0.9
			c-0.8,0.8-1.7,1.4-2.8,1.8s-2.1,0.6-3.2,0.6s-2.1-0.2-3.1-0.6s-1.9-1-2.7-1.8c-0.9-0.9-1.5-2-1.9-3.1c-0.3-1.1-0.4-2.3-0.3-3.6
			c0.1-1.2,0.3-2.3,0.7-3.3c0.4-1,0.9-2,1.5-3c0.9-1.4,2-2.6,3.2-3.5c1.3-0.9,2.8-1.5,4.4-1.8c0.6-0.1,1.3-0.2,1.9-0.2
			c0.6,0,1.3-0.1,1.9-0.1h2.2c-0.2-1.1-0.7-2.1-1.5-2.9c-0.8-0.9-1.8-1.3-2.9-1.2c-0.8,0-1.6,0.2-2.3,0.5s-1.5,0.7-2.1,1.3
			c-0.2,0.2-0.4,0.4-0.6,0.6s-0.4,0.4-0.7,0.5c-0.1,0.1-0.3,0.2-0.5,0.2s-0.3,0.1-0.4,0c-0.1-0.1-0.2-0.2-0.3-0.3
			c-0.1-0.2-0.1-0.3-0.2-0.5c0-0.2,0-0.3,0-0.5c0.1-0.2,0.1-0.3,0.2-0.4c0.8-1,1.6-1.9,2.4-2.8c0.9-0.9,1.9-1.5,3.1-2
			c0.6-0.2,1.2-0.3,1.9-0.5c0.6-0.1,1.3-0.3,1.9-0.4c2.1-0.3,4.1-0.2,6.1,0.5c1.2,0.4,2.3,1,3.1,1.7c0.9,0.7,1.5,1.7,1.9,2.9
			c0.4,1.3,0.8,2.5,1.1,3.8c0.3,1.3,0.5,2.6,0.5,3.9c0.1,1.4,0.1,2.9,0.2,4.4s0.2,2.9,0.4,4.4c0,0.5,0.2,0.9,0.4,1.3
			c0.2,0.4,0.5,0.9,0.8,1.3S169.7,139.7,169.7,139.9L169.7,139.9z M154.9,137.2c0.8-1.4,1.3-2.8,1.6-4.2c0.3-1.5,0.5-3,0.6-4.6v-0.9
			c0-0.6-0.1-1-0.3-1.2s-0.5-0.3-1.1-0.3c-0.3,0-0.6,0.1-0.8,0.2c-0.4,0.2-0.7,0.4-1.1,0.6s-0.7,0.5-1,0.8c-1.3,1.3-2.1,2.8-2.3,4.3
			c-0.2,1.6-0.1,3.2,0.4,4.9c0.1,0.5,0.3,0.9,0.7,1.2c0.3,0.3,0.8,0.6,1.3,0.6c0.5,0.1,0.9,0,1.2-0.3S154.8,137.6,154.9,137.2
			L154.9,137.2z"/>
		<path class="st0" d="M201.8,142.8c-0.5,0.1-1,0.2-1.6,0.2s-1.4,0-2.6,0c-1.2,0-2.4,0-3.6,0s-2.4,0-3.5,0c-1.1,0-1.8,0-2.3,0
			c-0.3,0-0.5-0.1-0.7-0.3c-0.1-0.2-0.1-0.5,0.1-0.8c0.1-0.1,0.2-0.2,0.3-0.4c0.1-0.2,0.3-0.4,0.5-0.7c0.2-0.2,0.3-0.4,0.5-0.7
			c0.1-0.2,0.2-0.3,0.3-0.4c0.1-0.1,0.2-0.4,0.3-0.7s0.1-0.7,0.1-1.1s0-0.8,0-1.1V136c0-1.8,0.1-3.5,0.1-5.2c0-1.7,0-3.4,0-5.2
			c0-0.8,0-1.7-0.1-2.5c-0.1-0.8-0.1-1.6-0.2-2.4c0-0.2-0.1-0.5-0.2-0.7c-0.1-0.2-0.2-0.5-0.3-0.7c-0.4-0.5-0.8-0.8-1.2-0.9
			c-0.4-0.1-0.8,0-1.3,0.5c-0.7,0.7-1.2,1.3-1.6,2.1s-0.7,1.6-0.9,2.5c-0.1,0.3-0.1,0.6-0.2,0.9s-0.1,0.6-0.2,0.9v3.9
			c0,1.3,0,2.5,0,3.7c0,1.1,0,2.1,0,2.9v1.7c0,0.5,0.1,0.9,0.5,1.4c0.3,0.5,0.6,0.9,1,1.4s0.7,0.9,1,1.4c0.1,0.1,0.1,0.3,0.2,0.5
			c0.1,0.2,0.1,0.3,0,0.5c-0.2,0.3-0.5,0.5-0.9,0.5h-13.5c-0.4,0-0.7-0.1-0.9-0.5c-0.1-0.1-0.1-0.3,0-0.5s0.1-0.4,0.2-0.5
			c0.3-0.5,0.6-0.9,1-1.4c0.3-0.5,0.7-0.9,1-1.4c0.3-0.4,0.5-0.9,0.5-1.4v-11.3c0-1,0-1.9,0-2.7c0-0.8,0-1.3,0-1.6
			c0-0.5-0.2-1-0.6-1.3c-0.2-0.2-0.4-0.4-0.5-0.6s-0.3-0.4-0.5-0.6c-0.5-0.5-0.4-0.9,0.2-1.2c0.5-0.2,0.9-0.3,1.4-0.4
			s0.9-0.2,1.4-0.4c1.3-0.4,2.5-0.8,3.7-1.1c1.2-0.4,2.4-0.7,3.7-1.1c0.6-0.2,1-0.2,1.2,0s0.3,0.6,0.3,1.1v1.6c0,0.3,0,0.7-0.1,1.1
			c0.6-1,1.4-1.8,2.4-2.4c0.9-0.6,2-1,3.2-1.2c1-0.2,2-0.3,3-0.3s2,0.2,2.9,0.6c1.3,0.6,2.3,1.4,3,2.5s1.2,2.2,1.5,3.5
			c0.2,0.7,0.3,1.7,0.4,3.2s0.1,2.9,0.1,4.5c0,1.5,0,3,0,4.3s0,2.2,0,2.8v1.3c0,0.4,0.1,0.8,0.2,1.3c0.1,0.4,0.3,0.7,0.6,1.1
			s0.5,0.7,0.8,1.1c0.1,0.1,0.2,0.2,0.3,0.3c0.1,0.1,0.2,0.2,0.3,0.3C202.6,142.2,202.5,142.6,201.8,142.8L201.8,142.8z"/>
		<path class="st0" d="M232,139.3c0.5,0.5,0.4,0.9-0.2,1.2c-0.2,0.1-0.9,0.3-1.9,0.6c-1.1,0.3-2.2,0.7-3.4,1c-1.4,0.4-3,0.9-4.7,1.4
			c-0.6,0.2-1,0.2-1.2,0c-0.2-0.2-0.3-0.6-0.3-1.1v-1.8c-0.1,0.2-0.3,0.4-0.4,0.5l-0.5,0.5c-0.6,0.6-1.4,1.1-2.1,1.3
			s-1.5,0.5-2.3,0.6c-0.9,0.2-1.8,0.3-2.7,0.3s-1.9-0.1-2.8-0.4c-1.3-0.3-2.4-0.9-3.2-1.8c-0.8-0.8-1.4-1.9-1.9-3.1
			c-0.1-0.5-0.3-1.1-0.4-2c-0.1-0.9-0.2-1.9-0.2-3c0-1.1-0.1-2.3,0-3.5c0-1.2,0.1-2.4,0.1-3.6c0.1-1.1,0.1-2.2,0.3-3.1
			c0.1-0.9,0.3-1.6,0.4-2.1c0.5-1.5,1.3-2.8,2.3-3.8c1-1.1,2.3-1.8,3.9-2.1c1.8-0.3,3.5-0.3,5.2,0.2s3.2,1.4,4.3,2.9v-9.1
			c0-0.6-0.2-1-0.6-1.4c-0.2-0.2-0.4-0.3-0.5-0.5s-0.3-0.4-0.5-0.6c-0.5-0.6-0.4-1,0.3-1.2l0.7-0.2c0.3-0.1,0.8-0.2,1.3-0.4
			c0.5-0.1,1-0.3,1.6-0.5c0.6-0.2,1.2-0.4,1.8-0.5c1.4-0.4,3-0.9,4.7-1.4c0.5-0.2,0.9-0.2,1.1,0s0.3,0.6,0.3,1.2v15.1
			c0,1.9,0,3.9,0,5.8c0,1.9,0,3.7,0,5.4v6.9c0,0.6,0.2,1,0.5,1.3C231.4,138.5,231.7,138.9,232,139.3L232,139.3z M220.2,134.9v-8.1
			c-0.1-0.9-0.2-1.9-0.3-2.8c-0.1-0.9-0.4-1.8-0.8-2.7c-0.1-0.3-0.3-0.6-0.5-0.9c-0.1-0.3-0.3-0.5-0.6-0.8c-0.4-0.5-0.9-0.7-1.3-0.6
			c-0.5,0.1-0.8,0.3-1.1,0.9c-0.3,0.7-0.6,1.4-0.8,2.2s-0.4,1.5-0.4,2.2c0,0.6-0.1,1.6-0.1,2.8c0,1.3,0,2.6,0,4
			c0,1.4,0.1,2.7,0.1,3.9s0.1,2.1,0.1,2.6c0.1,0.5,0.2,1,0.5,1.5s0.7,0.7,1.2,0.8c0.6,0.1,1.1-0.1,1.5-0.4c0.4-0.3,0.7-0.7,1-1.2
			c0.3-0.5,0.6-1.1,0.9-1.7S220,135.6,220.2,134.9L220.2,134.9z"/>
		<path class="st0" d="M257.2,137.1c0.2-0.1,0.5-0.3,0.7-0.3c0.2-0.1,0.4,0,0.6,0.3c0.4,0.5,0.5,1,0.1,1.6c-0.6,0.9-1.3,1.7-2.1,2.3
			c-0.8,0.6-1.7,1.1-2.7,1.6c-2.4,1.1-4.8,1.6-7.2,1.5c-2.4-0.1-4.8-0.8-7.1-2c-1.5-0.8-2.6-1.9-3.4-3.3c-0.8-1.3-1.4-2.8-1.7-4.4
			c-0.8-3.6-0.7-7,0.2-10c0.9-3.1,2.9-5.8,5.8-8.2c1-0.8,2.1-1.4,3.2-1.8s2.4-0.6,3.7-0.6c1.1-0.1,2.3-0.1,3.4,0.1
			c1.1,0.1,2.2,0.4,3.3,0.9c3,1.2,4.8,3.4,5.2,6.6c0.2,1.5,0.2,2.9,0,4.3s-0.7,2.7-1.5,4c-1.5,2.4-3.7,3.7-6.4,4
			c-1.2,0.1-2.4,0.2-3.6,0.1c-1.2-0.1-2.4-0.2-3.6-0.4c0.5,1.7,1.4,3,2.6,3.9c1.2,0.9,2.7,1.4,4.4,1.4c1.1,0,2.1-0.1,3.1-0.3
			S256.2,137.7,257.2,137.1L257.2,137.1z M243.6,128.6c0,0.7,0,1.1,0.1,1.2c0.1,0.1,0.4,0.3,1.1,0.5c0.3,0.1,0.5,0.1,0.8,0.2
			s0.5,0.1,0.8,0.2c1.1,0.2,2.1,0,3.1-0.7s1.6-1.5,1.8-2.5c0-0.2,0.1-0.5,0.1-0.8c0-0.4,0-0.8,0-1.2s0-0.8,0-1.2c0-0.4,0-0.7,0-0.8
			c-0.1-1.6-0.6-3-1.4-4.4c-0.3-0.4-0.6-0.7-0.9-0.8s-0.8,0-1.2,0.3c-0.7,0.5-1.3,1.2-1.8,2c-0.7,1.3-1.3,2.6-1.6,3.9
			C244,125.7,243.8,127.1,243.6,128.6L243.6,128.6z"/>
		<path class="st0" d="M285.9,113.9c0.5,0,0.9,0.3,1.2,0.7c0.3,0.4,0.3,0.9,0.2,1.5c-0.4,1.3-0.8,2.7-1.3,4s-0.8,2.7-1.3,4
			c-0.2,0.6-0.4,0.9-0.6,0.9c-0.2,0-0.5-0.1-1-0.5c-1.1-0.8-2.2-1.3-3.3-1.6c-1.1-0.3-2.4-0.2-3.7,0.2c-0.6,0.2-1.1,0.5-1.5,1
			c-0.4,0.5-0.7,1-0.9,1.5c0,0-0.1,0.1-0.1,0.1v3.8c0,1.3,0,2.5,0,3.5c0,1.1,0,2,0,2.8v1.6c0,0.5,0.1,0.9,0.5,1.4
			c0.3,0.5,0.6,0.9,1,1.4s0.7,0.9,1,1.4c0.1,0.1,0.1,0.3,0.2,0.5c0.1,0.2,0,0.3,0,0.5c-0.2,0.3-0.5,0.5-0.9,0.5h-13.5
			c-0.4,0-0.7-0.1-0.9-0.5c-0.1-0.1-0.1-0.3,0-0.5c0.1-0.2,0.1-0.4,0.2-0.5c0.3-0.5,0.6-0.9,1-1.4s0.7-0.9,1-1.4
			c0.3-0.4,0.5-0.9,0.5-1.4v-11.3c0-1,0-1.9,0-2.7s0-1.3,0-1.6c0-0.5-0.2-1-0.6-1.3c-0.2-0.2-0.4-0.4-0.5-0.6
			c-0.1-0.2-0.3-0.4-0.5-0.6c-0.5-0.5-0.4-0.9,0.2-1.2c0.5-0.2,0.9-0.3,1.4-0.4s0.9-0.2,1.4-0.4c1.3-0.4,2.5-0.8,3.7-1.1
			s2.4-0.7,3.7-1.1c0.6-0.2,1-0.2,1.2,0s0.3,0.6,0.3,1.1v1.6c0,0.3,0,0.7-0.1,1.1c1.6-2.6,4.1-4.2,7.4-5c0.8-0.2,1.5-0.3,2.4-0.3
			S285.1,113.9,285.9,113.9L285.9,113.9z"/>
		<path class="st0" d="M310.1,137.1c0.2-0.1,0.5-0.3,0.7-0.3c0.2-0.1,0.4,0,0.6,0.3c0.4,0.5,0.5,1,0.1,1.6c-0.6,0.9-1.3,1.7-2.1,2.3
			c-0.8,0.6-1.7,1.1-2.7,1.6c-2.4,1.1-4.8,1.6-7.2,1.5c-2.4-0.1-4.8-0.8-7.1-2c-1.5-0.8-2.6-1.9-3.4-3.3c-0.8-1.3-1.4-2.8-1.7-4.4
			c-0.8-3.6-0.7-7,0.2-10c0.9-3.1,2.9-5.8,5.8-8.2c1-0.8,2.1-1.4,3.2-1.8s2.4-0.6,3.7-0.6c1.1-0.1,2.3-0.1,3.4,0.1
			c1.1,0.1,2.2,0.4,3.3,0.9c3,1.2,4.8,3.4,5.2,6.6c0.2,1.5,0.2,2.9,0,4.3s-0.7,2.7-1.5,4c-1.5,2.4-3.7,3.7-6.4,4
			c-1.2,0.1-2.4,0.2-3.6,0.1s-2.4-0.2-3.6-0.4c0.5,1.7,1.4,3,2.6,3.9s2.7,1.4,4.4,1.4c1.1,0,2.1-0.1,3.1-0.3
			C308.2,138,309.2,137.7,310.1,137.1L310.1,137.1z M296.5,128.6c0,0.7,0,1.1,0.1,1.2c0.1,0.1,0.5,0.3,1.1,0.5
			c0.3,0.1,0.5,0.1,0.8,0.2s0.5,0.1,0.8,0.2c1.1,0.2,2.1,0,3.1-0.7s1.6-1.5,1.8-2.5c0-0.2,0.1-0.5,0.1-0.8s0-0.8,0-1.2s0-0.8,0-1.2
			c0-0.4,0-0.7,0-0.8c-0.1-1.6-0.6-3-1.4-4.4c-0.3-0.4-0.6-0.7-0.9-0.8c-0.4-0.1-0.8,0-1.2,0.3c-0.7,0.5-1.3,1.2-1.8,2
			c-0.7,1.3-1.3,2.6-1.6,3.9C297,125.7,296.7,127.1,296.5,128.6L296.5,128.6z"/>
		<path class="st0" d="M338.9,113.9c0.5,0,0.9,0.3,1.2,0.7c0.3,0.4,0.3,0.9,0.2,1.5c-0.4,1.3-0.8,2.7-1.3,4s-0.8,2.7-1.3,4
			c-0.2,0.6-0.4,0.9-0.6,0.9c-0.2,0-0.5-0.1-1-0.5c-1.1-0.8-2.2-1.3-3.3-1.6c-1.1-0.3-2.4-0.2-3.7,0.2c-0.6,0.2-1.1,0.5-1.5,1
			c-0.4,0.5-0.7,1-0.9,1.5c0,0-0.1,0.1-0.1,0.1v3.8c0,1.3,0,2.5,0,3.5c0,1.1,0,2,0,2.8v1.6c0,0.5,0.1,0.9,0.5,1.4
			c0.3,0.5,0.6,0.9,1,1.4s0.7,0.9,1,1.4c0.1,0.1,0.1,0.3,0.2,0.5c0.1,0.2,0,0.3,0,0.5c-0.2,0.3-0.5,0.5-0.9,0.5h-13.5
			c-0.4,0-0.7-0.1-0.9-0.5c-0.1-0.1-0.1-0.3,0-0.5c0.1-0.2,0.1-0.4,0.2-0.5c0.3-0.5,0.6-0.9,1-1.4s0.7-0.9,1-1.4
			c0.3-0.4,0.5-0.9,0.5-1.4v-11.3c0-1,0-1.9,0-2.7s0-1.3,0-1.6c0-0.5-0.2-1-0.6-1.3c-0.2-0.2-0.4-0.4-0.5-0.6
			c-0.1-0.2-0.3-0.4-0.5-0.6c-0.5-0.5-0.4-0.9,0.2-1.2c0.5-0.2,0.9-0.3,1.4-0.4s0.9-0.2,1.4-0.4c1.3-0.4,2.5-0.8,3.7-1.1
			s2.4-0.7,3.7-1.1c0.6-0.2,1-0.2,1.2,0s0.3,0.6,0.3,1.1v1.6c0,0.3,0,0.7-0.1,1.1c1.6-2.6,4.1-4.2,7.4-5c0.8-0.2,1.5-0.3,2.4-0.3
			S338,113.9,338.9,113.9L338.9,113.9z"/>
	</g>
	<path class="st0" d="M347.3,133.6c1-0.4,1.7-0.8,2.6-1.2c-0.8-0.4-1.5-0.6-2.4-1.1c1-0.4,1.8-0.7,2.8-1.1c-1.1-0.5-2.1-1-3-1.5
		c0-0.1,0-0.2,0-0.3c1-0.2,2.1-0.5,3.6-0.8c-1.4-0.5-2.3-0.8-3.3-1.2c0-0.2-0.1-0.3-0.1-0.5c1.8-0.4,3.6-1.3,5.3-1.2
		c21.7,1.4,43.3,3,65,4.6c3.7,0.3,7.3,0.5,11,0.7c0.6,0,1.1,0.1,1.6,0.4c-5.1,0.3-10.2,0.5-15.3,0.8c-17.1,0.9-34.2,1.7-51.4,2.6
		c-3.1,0.1-6.2,0-9.2,0.5c-2.2,0.4-4.3,0.1-6.4-0.4C348,133.9,347.8,133.8,347.3,133.6L347.3,133.6z"/>
	<path class="st0" d="M83.1,125.7c-1,0.4-1.7,0.8-2.6,1.2c0.8,0.4,1.4,0.6,2.4,1.1c-1,0.4-1.8,0.7-2.8,1.1c1.1,0.5,2.1,1,3,1.5
		c0,0.1,0,0.2,0,0.3c-1,0.2-2.1,0.5-3.6,0.8c1.4,0.5,2.3,0.8,3.3,1.2c0,0.2,0.1,0.3,0.1,0.5c-1.8,0.4-3.6,1.3-5.3,1.2
		c-21.7-1.5-43.3-3.1-65-4.7c-3.7-0.3-7.3-0.5-11-0.8c-0.6,0-1.1-0.1-1.6-0.4c5.1-0.2,10.2-0.5,15.3-0.8c17.1-0.8,34.2-1.7,51.3-2.5
		c3.1-0.2,6.2,0,9.2-0.5c2.2-0.4,4.3-0.1,6.4,0.4C82.4,125.3,82.6,125.4,83.1,125.7L83.1,125.7z"/>
</g>
</svg>
